<svg width="23" height="23" viewBox="0 0 23 23" fill="none" xmlns="http://www.w3.org/2000/svg">
  <path d="M3.125 6.00008V15.9001C3.125 16.9268 3.125 17.4399 3.32482 17.832C3.50059 18.177 3.78085 18.458 4.12581 18.6338C4.5176 18.8334 5.03074 18.8334 6.0555 18.8334H16.6945C17.7193 18.8334 18.2317 18.8334 18.6234 18.6338C18.9684 18.458 19.2496 18.1772 19.4254 17.8322C19.6252 17.44 19.6252 16.9267 19.6252 15.8999L19.6252 8.93321C19.6252 7.90645 19.6252 7.39307 19.4254 7.0009C19.2496 6.65593 18.9686 6.37567 18.6236 6.1999C18.2315 6.00008 17.7184 6.00008 16.6917 6.00008H11.375M3.125 6.00008H11.375M3.125 6.00008C3.125 4.98756 3.94581 4.16675 4.95833 4.16675H8.32664C8.77506 4.16675 8.99979 4.16675 9.21079 4.2174C9.39785 4.26231 9.57636 4.33657 9.7404 4.43709C9.92535 4.55043 10.0842 4.70925 10.401 5.02612L11.375 6.00008" stroke="#637D92" stroke-width="1.6" stroke-linecap="round" stroke-linejoin="round" />
</svg>