<svg width="21" height="19" viewBox="0 0 21 19" fill="none" xmlns="http://www.w3.org/2000/svg">
<path d="M17.7791 6.67935L17.4434 6.4926C17.3913 6.4636 17.3657 6.44905 17.3405 6.43397C17.0901 6.28401 16.8791 6.07683 16.7252 5.82896C16.7097 5.80402 16.6951 5.77786 16.6652 5.72617C16.6354 5.67454 16.6203 5.64838 16.6064 5.62248C16.4683 5.36461 16.3936 5.07722 16.3891 4.78472C16.3887 4.75532 16.3888 4.72527 16.3898 4.66554L16.3963 4.27572C16.4068 3.6519 16.4121 3.33902 16.3244 3.05823C16.2466 2.80882 16.1163 2.5791 15.9423 2.38415C15.7457 2.16378 15.4735 2.00656 14.9285 1.69253L14.4759 1.43169C13.9325 1.11853 13.6606 0.9619 13.3721 0.902187C13.1169 0.84936 12.8535 0.851808 12.5992 0.908901C12.3121 0.973338 12.0437 1.13405 11.5072 1.4553L11.5042 1.45675L11.1798 1.65096C11.1285 1.68167 11.1026 1.69715 11.0769 1.71144C10.8218 1.85326 10.537 1.93168 10.2453 1.94105C10.2159 1.94199 10.186 1.94199 10.1262 1.94199C10.0668 1.94199 10.0356 1.94199 10.0062 1.94105C9.7139 1.93164 9.42854 1.85279 9.17305 1.71038C9.1473 1.69603 9.12183 1.68043 9.07044 1.64958L8.74404 1.45362C8.20387 1.12933 7.93338 0.966946 7.64475 0.902187C7.3894 0.844894 7.12509 0.843308 6.86891 0.896816C6.57966 0.957232 6.30779 1.11503 5.76403 1.43061L5.76162 1.43169L5.31459 1.69113L5.30964 1.69416C4.77079 2.00691 4.50071 2.16366 4.30572 2.38313C4.13269 2.57788 4.00336 2.80724 3.92595 3.056C3.83845 3.33717 3.84311 3.65071 3.85365 4.27747L3.8602 4.66674C3.8612 4.72569 3.86292 4.75498 3.86249 4.78398C3.85815 5.07707 3.78245 5.36504 3.64393 5.62338C3.63023 5.64893 3.61547 5.67448 3.586 5.72551C3.5565 5.77658 3.54221 5.80197 3.52691 5.82662C3.37225 6.07581 3.16029 6.28421 2.90839 6.43441C2.88347 6.44927 2.85721 6.46356 2.80561 6.49215L2.47418 6.67582C1.92274 6.98141 1.64709 7.13434 1.44651 7.35197C1.26907 7.5445 1.13502 7.77286 1.0532 8.02157C0.960706 8.30271 0.960784 8.61797 0.962216 9.24842L0.963387 9.7637C0.964809 10.3899 0.96676 10.7028 1.05946 10.9821C1.14147 11.2291 1.27454 11.4561 1.45099 11.6475C1.65043 11.8638 1.92334 12.0158 2.4706 12.3202L2.79908 12.503C2.85498 12.5341 2.88311 12.5494 2.91007 12.5657C3.15969 12.716 3.36998 12.9238 3.52333 13.1716C3.5399 13.1983 3.5558 13.2261 3.5876 13.2817C3.61901 13.3365 3.63508 13.364 3.64961 13.3915C3.78406 13.646 3.85604 13.9289 3.86095 14.2167C3.86148 14.2478 3.86103 14.2792 3.85996 14.3425L3.85365 14.716C3.84304 15.3449 3.83841 15.6597 3.92643 15.9417C4.00429 16.1911 4.13444 16.4208 4.30841 16.6158C4.50506 16.8361 4.77767 16.9933 5.32265 17.3073L5.77521 17.5681C6.31866 17.8812 6.59028 18.0377 6.8788 18.0974C7.13404 18.1502 7.39759 18.1482 7.65191 18.0911C7.93936 18.0266 8.20869 17.8653 8.74672 17.5431L9.07106 17.3489C9.12237 17.3182 9.14836 17.3028 9.17406 17.2885C9.42915 17.1467 9.71363 17.0678 10.0053 17.0585C10.0347 17.0575 10.0646 17.0575 10.1245 17.0575C10.1844 17.0575 10.2143 17.0575 10.2437 17.0585C10.5361 17.0679 10.8223 17.147 11.0778 17.2894C11.1003 17.3019 11.1228 17.3155 11.1623 17.3392L11.5071 17.5462C12.0474 17.8706 12.3173 18.0325 12.6059 18.0972C12.8613 18.1545 13.1258 18.1568 13.382 18.1033C13.6711 18.0429 13.9436 17.8848 14.487 17.5694L14.9408 17.3061C15.48 16.9931 15.7503 16.8362 15.9454 16.6167C16.1184 16.4219 16.2479 16.1926 16.3253 15.9439C16.4122 15.6648 16.407 15.3536 16.3966 14.7359L16.3898 14.3331C16.3888 14.2741 16.3887 14.2448 16.3891 14.2158C16.3935 13.9227 16.4679 13.6345 16.6064 13.3762C16.6201 13.3507 16.635 13.3249 16.6644 13.2741C16.6939 13.223 16.7091 13.1975 16.7244 13.1729C16.8791 12.9237 17.0913 12.7151 17.3432 12.5649C17.3678 12.5502 17.3931 12.5362 17.4435 12.5083L17.4452 12.5075L17.7766 12.3238C18.3281 12.0182 18.6043 11.8651 18.8048 11.6475C18.9823 11.455 19.1162 11.2269 19.198 10.9782C19.2899 10.6987 19.2892 10.3853 19.2878 9.76223L19.2866 9.23589C19.2852 8.60965 19.2844 8.29678 19.1917 8.01754C19.1097 7.7705 18.9759 7.54348 18.7994 7.35211C18.6002 7.13602 18.3269 6.98398 17.7807 6.68013L17.7791 6.67935Z" stroke="#637D92" stroke-width="1.6" stroke-linecap="round" stroke-linejoin="round"/>
<path d="M6.45864 9.49996C6.45864 11.525 8.10026 13.1666 10.1253 13.1666C12.1503 13.1666 13.792 11.525 13.792 9.49996C13.792 7.47492 12.1503 5.8333 10.1253 5.8333C8.10026 5.8333 6.45864 7.47492 6.45864 9.49996Z" stroke="#637D92" stroke-width="1.6" stroke-linecap="round" stroke-linejoin="round"/>
</svg>
