<svg width="23" height="23" viewBox="0 0 23 23" fill="none" xmlns="http://www.w3.org/2000/svg">
<g clip-path="url(#clip0_3023_648)">
<path d="M10.7012 14.0711C11.6226 13.4577 12.3222 12.564 12.6964 11.5223C13.0706 10.4805 13.0997 9.34598 12.7792 8.28644C12.4588 7.22689 11.8059 6.29859 10.9171 5.63881C10.0283 4.97903 8.9507 4.6228 7.84376 4.6228C6.73682 4.6228 5.65927 4.97903 4.77044 5.63881C3.88162 6.29859 3.22871 7.22689 2.90828 8.28644C2.58784 9.34598 2.61689 10.4805 2.99113 11.5223C3.36536 12.564 4.06492 13.4577 4.98634 14.0711C3.31958 14.6855 1.89612 15.8222 0.928372 17.3118C0.87751 17.3874 0.842182 17.4724 0.82444 17.5618C0.806698 17.6511 0.806897 17.7431 0.825024 17.8324C0.843152 17.9217 0.878847 18.0065 0.930034 18.0819C0.981221 18.1573 1.04688 18.2217 1.12319 18.2715C1.19951 18.3212 1.28495 18.3554 1.37457 18.3718C1.46418 18.3883 1.55617 18.3868 1.64519 18.3674C1.73421 18.348 1.81849 18.3111 1.89312 18.2588C1.96775 18.2065 2.03126 18.14 2.07993 18.0629C2.70418 17.1028 3.55837 16.3139 4.56493 15.7677C5.5715 15.2215 6.69856 14.9355 7.84376 14.9355C8.98896 14.9355 10.116 15.2215 11.1226 15.7677C12.1292 16.3139 12.9834 17.1028 13.6076 18.0629C13.7084 18.2128 13.8642 18.317 14.0412 18.3529C14.2182 18.3889 14.4023 18.3537 14.5536 18.255C14.7049 18.1563 14.8113 18.0021 14.8497 17.8256C14.8882 17.6491 14.8557 17.4645 14.7592 17.3118C13.7914 15.8222 12.3679 14.6855 10.7012 14.0711ZM4.06251 9.78115C4.06251 9.03328 4.28428 8.30222 4.69977 7.68039C5.11526 7.05857 5.70581 6.57392 6.39674 6.28773C7.08767 6.00153 7.84796 5.92665 8.58145 6.07255C9.31494 6.21845 9.98869 6.57858 10.5175 7.1074C11.0463 7.63621 11.4065 8.30997 11.5524 9.04346C11.6983 9.77695 11.6234 10.5372 11.3372 11.2282C11.051 11.9191 10.5663 12.5096 9.94451 12.9251C9.32269 13.3406 8.59162 13.5624 7.84376 13.5624C6.84126 13.5613 5.88015 13.1625 5.17127 12.4536C4.46239 11.7448 4.06365 10.7836 4.06251 9.78115ZM22.1214 18.2632C21.9687 18.3628 21.7827 18.3976 21.6043 18.3601C21.4259 18.3225 21.2697 18.2156 21.1701 18.0629C20.5466 17.1023 19.6925 16.313 18.6857 15.767C17.679 15.2211 16.5515 14.9359 15.4063 14.9374C15.2239 14.9374 15.0491 14.865 14.9201 14.736C14.7912 14.6071 14.7188 14.4322 14.7188 14.2499C14.7188 14.0676 14.7912 13.8927 14.9201 13.7638C15.0491 13.6348 15.2239 13.5624 15.4063 13.5624C15.9631 13.5619 16.513 13.4384 17.0166 13.2007C17.5201 12.963 17.965 12.6171 18.3194 12.1875C18.6738 11.758 18.9289 11.2555 19.0666 10.716C19.2042 10.1764 19.221 9.61308 19.1158 9.06627C19.0105 8.51947 18.7857 8.00266 18.4576 7.55278C18.1294 7.1029 17.7059 6.73106 17.2174 6.46381C16.7289 6.19657 16.1873 6.04052 15.6315 6.00683C15.0757 5.97313 14.5193 6.06261 14.002 6.26888C13.9177 6.30534 13.8269 6.32452 13.7351 6.3253C13.6432 6.32607 13.5521 6.30843 13.4671 6.2734C13.3822 6.23837 13.3052 6.18668 13.2405 6.12137C13.1759 6.05606 13.125 5.97846 13.0909 5.89315C13.0568 5.80785 13.0401 5.71657 13.0419 5.62471C13.0436 5.53285 13.0638 5.44227 13.1011 5.35833C13.1385 5.27439 13.1923 5.19878 13.2593 5.13599C13.3264 5.07319 13.4054 5.02447 13.4916 4.99271C14.6753 4.52061 15.992 4.50362 17.1875 4.94502C18.3831 5.38641 19.3728 6.25492 19.9658 7.38299C20.5587 8.51105 20.7129 9.81875 20.3986 11.0538C20.0843 12.2889 19.3238 13.3638 18.2637 14.0711C19.9304 14.6855 21.3539 15.8222 22.3217 17.3118C22.4212 17.4646 22.4561 17.6506 22.4185 17.829C22.381 18.0074 22.2741 18.1636 22.1214 18.2632Z" fill="#637D92"/>
</g>
<defs>
<clipPath id="clip0_3023_648">
<rect width="22" height="22" fill="white" transform="translate(0.625 0.5)"/>
</clipPath>
</defs>
</svg>
